ffmpeg version 3.4.8-0ubuntu0.2 Copyright (c) 2000-2020 the FFmpeg developers
  built with gcc 7 (Ubuntu 7.5.0-3ubuntu1~18.04)
  configuration: --prefix=/usr --extra-version=0ubuntu0.2 --toolchain=hardened --libdir=/usr/lib/x86_64-linux-gnu --incdir=/usr/include/x86_64-linux-gnu --enable-gpl --disable-stripping --enable-avresample --enable-avisynth --enable-gnutls --enable-ladspa --enable-libass --enable-libbluray --enable-libbs2b --enable-libcaca --enable-libcdio --enable-libflite --enable-libfontconfig --enable-libfreetype --enable-libfribidi --enable-libgme --enable-libgsm --enable-libmp3lame --enable-libmysofa --enable-libopenjpeg --enable-libopenmpt --enable-libopus --enable-libpulse --enable-librubberband --enable-librsvg --enable-libshine --enable-libsnappy --enable-libsoxr --enable-libspeex --enable-libssh --enable-libtheora --enable-libtwolame --enable-libvorbis --enable-libvpx --enable-libwavpack --enable-libwebp --enable-libx265 --enable-libxml2 --enable-libxvid --enable-libzmq --enable-libzvbi --enable-omx --enable-openal --enable-opengl --enable-sdl2 --enable-libdc1394 --enable-libdrm --enable-libiec61883 --enable-chromaprint --enable-frei0r --enable-libopencv --enable-libx264 --enable-shared
  libavutil      55. 78.100 / 55. 78.100
  libavcodec     57.107.100 / 57.107.100
  libavformat    57. 83.100 / 57. 83.100
  libavdevice    57. 10.100 / 57. 10.100
  libavfilter     6.107.100 /  6.107.100
  libavresample   3.  7.  0 /  3.  7.  0
  libswscale      4.  8.100 /  4.  8.100
  libswresample   2.  9.100 /  2.  9.100
  libpostproc    54.  7.100 / 54.  7.100
[rawvideo @ 0x555e52cc0a20] Estimating duration from bitrate, this may be inaccurate
Input #0, rawvideo, from '../../SVC-Encoder-20220109T061506Z-001/SVC-Encoder/Dataset/RollerCoaster/ERP_8x8/tile_yuv/Tile_43_480x240.yuv':
  Duration: 00:00:10.00, start: 0.000000, bitrate: 41472 kb/s
    Stream #0:0: Video: rawvideo (I420 / 0x30323449), yuv420p, 480x240, 41472 kb/s, 30 tbr, 30 tbn, 30 tbc
Stream mapping:
  Stream #0:0 -> #0:0 (rawvideo (native) -> h264 (libx264))
Press [q] to stop, [?] for help
[libx264 @ 0x555e52ccdc60] using cpu capabilities: MMX2 SSE2Fast LZCNT SSSE3 SSE4.2 AVX
[libx264 @ 0x555e52ccdc60] profile High, level 2.1
Output #0, rawvideo, to 'RollerCoaster_Tile_43_480x240_x264_QP_20.h264':
  Metadata:
    encoder         : Lavf57.83.100
    Stream #0:0: Video: h264 (libx264), yuv420p, 480x240, q=-1--1, 30 fps, 30 tbn, 30 tbc
    Metadata:
      encoder         : Lavc57.107.100 libx264
    Side data:
      cpb: bitrate max/min/avg: 0/0/0 buffer size: 0 vbv_delay: -1
frame=  115 fps=0.0 q=26.0 PSNR=Y:nan U:nan V:nan *:nan size=     175kB time=00:00:02.40 bitrate= 598.4kbits/s speed=4.72x    frame=  216 fps=214 q=26.0 PSNR=Y:nan U:nan V:nan *:nan size=     256kB time=00:00:05.76 bitrate= 363.7kbits/s speed=5.71x    frame=  300 fps=188 q=26.0 LPSNR=Y:inf U:inf V:inf *:inf size=     634kB time=00:00:09.93 bitrate= 522.5kbits/s speed=6.24x    
video:634kB audio:0kB subtitle:0kB other streams:0kB global headers:0kB muxing overhead: 0.000000%
[libx264 @ 0x555e52ccdc60] frame I:2     Avg QP:18.92  size: 18998  PSNR Mean Y:47.05 U:48.95 V:51.98 Avg:47.86 Global:47.83
[libx264 @ 0x555e52ccdc60] frame P:79    Avg QP:20.32  size:  5417  PSNR Mean Y:44.75 U:48.52 V:50.82 Avg:45.84 Global:45.79
[libx264 @ 0x555e52ccdc60] frame B:219   Avg QP:25.44  size:   835  PSNR Mean Y:44.53 U:48.62 V:50.78 Avg:45.65 Global:45.56
[libx264 @ 0x555e52ccdc60] consecutive B-frames:  1.0%  4.7%  1.0% 93.3%
[libx264 @ 0x555e52ccdc60] mb I  I16..4:  6.0% 61.9% 32.1%
[libx264 @ 0x555e52ccdc60] mb P  I16..4:  0.5%  1.5%  0.7%  P16..4: 39.9% 32.0% 18.3%  0.0%  0.0%    skip: 7.1%
[libx264 @ 0x555e52ccdc60] mb B  I16..4:  0.0%  0.2%  0.1%  B16..8: 51.3% 10.3%  1.4%  direct: 0.8%  skip:35.9%  L0:40.5% L1:49.8% BI: 9.7%
[libx264 @ 0x555e52ccdc60] 8x8 transform intra:57.9% inter:64.5%
[libx264 @ 0x555e52ccdc60] coded y,uvDC,uvAC intra: 75.9% 90.3% 52.5% inter: 17.2% 18.0% 0.9%
[libx264 @ 0x555e52ccdc60] i16 v,h,dc,p: 21% 35% 16% 28%
[libx264 @ 0x555e52ccdc60] i8 v,h,dc,ddl,ddr,vr,hd,vl,hu: 16% 30% 14%  6%  4%  3%  8% 12%  6%
[libx264 @ 0x555e52ccdc60] i4 v,h,dc,ddl,ddr,vr,hd,vl,hu: 15% 31% 12%  8%  5%  3% 11% 10%  6%
[libx264 @ 0x555e52ccdc60] i8c dc,h,v,p: 36% 32% 15% 16%
[libx264 @ 0x555e52ccdc60] Weighted P-Frames: Y:0.0% UV:0.0%
[libx264 @ 0x555e52ccdc60] ref P L0: 61.3% 19.7% 15.7%  3.3%
[libx264 @ 0x555e52ccdc60] ref B L0: 90.3%  8.6%  1.2%
[libx264 @ 0x555e52ccdc60] ref B L1: 95.3%  4.7%
[libx264 @ 0x555e52ccdc60] PSNR Mean Y:44.604 U:48.592 V:50.798 Avg:45.717 Global:45.628 kb/s:518.99
